# xmcd
#
# Track frame offsets:
#	150
#	20236
#	38665
#	53813
#	77141
#	98095
#	118715
#	136173
#	154184
#	172011
#	180678
#	197071
#	216398
#	229777
#
# Disc length: 3296 seconds
#
# Revision: 0
# Processed by: cddbd v1.5.2PL0 Copyright (c) Steve Scherf et al.
# Submitted via: dBpowerAMP V4.0
#
DISCID=c10cde0e
DTITLE=Rita Coolidge - Bye,bye love
DYEAR=1900
DGENRE=Pop
TTITLE0=Fascination
TTITLE1=Bed of roses
TTITLE2=Bye,bye love
TTITLE3=I´m still learning about love
TTITLE4=Fire me back
TTITLE5=Do the best you can
TTITLE6=Someday
TTITLE7=One fine day
TTITLE8=That´s the way love is
TTITLE9=Something about you baby that I like
TTITLE10=Words
TTITLE11=I stand in wonder
TTITLE12=Hello blues
TTITLE13=I would not change a thing
EXTD=
EXTT0=
EXTT1=
EXTT2=
EXTT3=
EXTT4=
EXTT5=
EXTT6=
EXTT7=
EXTT8=
EXTT9=
EXTT10=
EXTT11=
EXTT12=
EXTT13=
PLAYORDER=
